# xmcd
#
# Track frame offsets: 
#        150
#        29567
#        52377
#        71065
#        95205
#        122450
#        146245
#        167212
#        194275
#        223075
#
# Disc length: 3316 seconds
#
# Revision: 0
# Processed by: cddbd v1.5.2PL0 Copyright (c) Steve Scherf et al.
# Submitted via: ExactAudioCopyFreeDBPlugin 1.0
#
DISCID=a70cf20a
DTITLE=Melodie Sexton - MS4
DYEAR=1999
DGENRE=R&B
TTITLE0=Start All Over Again
TTITLE1=Candy Girl
TTITLE2=Feel Like Making Love
TTITLE3=Given The Chance
TTITLE4=Straight From My Heart
TTITLE5=Peace Of Mind
TTITLE6=Space
TTITLE7=If I Don't
TTITLE8=Think About It
TTITLE9=Big Brown Eyes
EXTD=
EXTT0=
EXTT1=
EXTT2=
EXTT3=
EXTT4=
EXTT5=
EXTT6=
EXTT7=
EXTT8=
EXTT9=
PLAYORDER=
